<svg width="293" height="139" viewBox="0 0 293 139" fill="none" xmlns="http://www.w3.org/2000/svg">
<path d="M33.952 18.448C36.4053 18.448 38.3573 18.9493 39.808 19.952C41.2587 20.9333 41.984 22.4053 41.984 24.368C41.984 25.8187 41.6213 27.0347 40.896 28.016C40.192 28.976 39.2213 29.7013 37.984 30.192C36.768 30.6613 35.3707 30.896 33.792 30.896L33.056 28.4C34.9973 28.4 36.7147 28.6667 38.208 29.2C39.7227 29.7333 40.9173 30.5013 41.792 31.504C42.6667 32.4853 43.104 33.6693 43.104 35.056C43.104 36.336 42.8693 37.424 42.4 38.32C41.952 39.1947 41.3333 39.9093 40.544 40.464C39.776 40.9973 38.9013 41.392 37.92 41.648C36.9387 41.8827 35.9253 42 34.88 42H27.04V18.448H33.952ZM34.496 28.08C35.4133 28.08 36.0853 27.8027 36.512 27.248C36.96 26.6933 37.184 26.064 37.184 25.36C37.184 24.5493 36.9067 23.9413 36.352 23.536C35.8187 23.1307 35.0933 22.928 34.176 22.928H31.68V28.08H34.496ZM34.656 37.68C35.3387 37.68 35.9573 37.5947 36.512 37.424C37.0667 37.232 37.504 36.944 37.824 36.56C38.144 36.1547 38.304 35.6533 38.304 35.056C38.304 34.3733 38.112 33.8613 37.728 33.52C37.344 33.1573 36.8427 32.912 36.224 32.784C35.6267 32.6347 34.9973 32.56 34.336 32.56H31.68V37.68H34.656ZM47.7588 18.448H52.3988V42H47.7588V18.448ZM57.0375 30.256C57.0375 28.6347 57.3468 27.0987 57.9655 25.648C58.5842 24.1973 59.4375 22.9173 60.5255 21.808C61.6348 20.6773 62.9148 19.792 64.3655 19.152C65.8162 18.512 67.3735 18.192 69.0375 18.192C70.6802 18.192 72.2268 18.512 73.6775 19.152C75.1282 19.792 76.4082 20.6773 77.5175 21.808C78.6482 22.9173 79.5228 24.1973 80.1415 25.648C80.7815 27.0987 81.1015 28.6347 81.1015 30.256C81.1015 31.92 80.7815 33.4773 80.1415 34.928C79.5228 36.3787 78.6482 37.6587 77.5175 38.768C76.4082 39.856 75.1282 40.7093 73.6775 41.328C72.2268 41.9467 70.6802 42.256 69.0375 42.256C67.3735 42.256 65.8162 41.9467 64.3655 41.328C62.9148 40.7093 61.6348 39.856 60.5255 38.768C59.4375 37.6587 58.5842 36.3787 57.9655 34.928C57.3468 33.4773 57.0375 31.92 57.0375 30.256ZM61.8375 30.256C61.8375 31.3013 62.0188 32.2827 62.3815 33.2C62.7655 34.096 63.2882 34.896 63.9495 35.6C64.6322 36.2827 65.4108 36.816 66.2855 37.2C67.1815 37.584 68.1522 37.776 69.1975 37.776C70.2002 37.776 71.1282 37.584 71.9815 37.2C72.8562 36.816 73.6135 36.2827 74.2535 35.6C74.8935 34.896 75.3948 34.096 75.7575 33.2C76.1202 32.2827 76.3015 31.3013 76.3015 30.256C76.3015 29.1893 76.1095 28.1973 75.7255 27.28C75.3628 26.3627 74.8508 25.5627 74.1895 24.88C73.5495 24.176 72.7922 23.632 71.9175 23.248C71.0428 22.864 70.0935 22.672 69.0695 22.672C68.0455 22.672 67.0962 22.864 66.2215 23.248C65.3468 23.632 64.5788 24.176 63.9175 24.88C63.2562 25.5627 62.7442 26.3627 62.3815 27.28C62.0188 28.1973 61.8375 29.1893 61.8375 30.256ZM85.7275 18.448H90.3675V37.52H101.44V42H85.7275V18.448ZM104.131 30.256C104.131 28.6347 104.441 27.0987 105.059 25.648C105.678 24.1973 106.531 22.9173 107.619 21.808C108.729 20.6773 110.009 19.792 111.459 19.152C112.91 18.512 114.467 18.192 116.131 18.192C117.774 18.192 119.321 18.512 120.771 19.152C122.222 19.792 123.502 20.6773 124.611 21.808C125.742 22.9173 126.617 24.1973 127.235 25.648C127.875 27.0987 128.195 28.6347 128.195 30.256C128.195 31.92 127.875 33.4773 127.235 34.928C126.617 36.3787 125.742 37.6587 124.611 38.768C123.502 39.856 122.222 40.7093 120.771 41.328C119.321 41.9467 117.774 42.256 116.131 42.256C114.467 42.256 112.91 41.9467 111.459 41.328C110.009 40.7093 108.729 39.856 107.619 38.768C106.531 37.6587 105.678 36.3787 105.059 34.928C104.441 33.4773 104.131 31.92 104.131 30.256ZM108.931 30.256C108.931 31.3013 109.113 32.2827 109.475 33.2C109.859 34.096 110.382 34.896 111.043 35.6C111.726 36.2827 112.505 36.816 113.379 37.2C114.275 37.584 115.246 37.776 116.291 37.776C117.294 37.776 118.222 37.584 119.075 37.2C119.95 36.816 120.707 36.2827 121.347 35.6C121.987 34.896 122.489 34.096 122.851 33.2C123.214 32.2827 123.395 31.3013 123.395 30.256C123.395 29.1893 123.203 28.1973 122.819 27.28C122.457 26.3627 121.945 25.5627 121.283 24.88C120.643 24.176 119.886 23.632 119.011 23.248C118.137 22.864 117.187 22.672 116.163 22.672C115.139 22.672 114.19 22.864 113.315 23.248C112.441 23.632 111.673 24.176 111.011 24.88C110.35 25.5627 109.838 26.3627 109.475 27.28C109.113 28.1973 108.931 29.1893 108.931 30.256ZM151.925 39.632C151.648 39.9307 151.211 40.24 150.613 40.56C150.016 40.8587 149.323 41.136 148.533 41.392C147.765 41.648 146.976 41.8507 146.165 42C145.355 42.1707 144.587 42.256 143.861 42.256C141.941 42.256 140.213 41.9787 138.677 41.424C137.141 40.848 135.829 40.0587 134.741 39.056C133.653 38.032 132.821 36.8267 132.245 35.44C131.669 34.0533 131.381 32.5387 131.381 30.896C131.381 28.7413 131.701 26.8747 132.341 25.296C133.003 23.696 133.888 22.3733 134.997 21.328C136.128 20.2613 137.419 19.472 138.869 18.96C140.341 18.448 141.877 18.192 143.477 18.192C144.992 18.192 146.379 18.3627 147.637 18.704C148.896 19.024 149.963 19.4293 150.837 19.92L149.333 24.24C148.949 24.0267 148.437 23.8133 147.797 23.6C147.157 23.3867 146.507 23.216 145.845 23.088C145.184 22.9387 144.597 22.864 144.085 22.864C142.805 22.864 141.675 23.024 140.693 23.344C139.712 23.664 138.88 24.144 138.197 24.784C137.536 25.424 137.035 26.224 136.693 27.184C136.352 28.1227 136.181 29.2213 136.181 30.48C136.181 31.5893 136.373 32.592 136.757 33.488C137.141 34.3627 137.675 35.1093 138.357 35.728C139.061 36.3467 139.883 36.816 140.821 37.136C141.781 37.456 142.837 37.616 143.989 37.616C144.651 37.616 145.259 37.5733 145.813 37.488C146.368 37.3813 146.837 37.2213 147.221 37.008V34.16H143.157V29.68H151.925V39.632ZM157.196 18.448H161.836V42H157.196V18.448ZM185.579 40.048C185.323 40.2613 184.843 40.5493 184.139 40.912C183.456 41.2747 182.614 41.5947 181.611 41.872C180.608 42.1493 179.499 42.2773 178.283 42.256C176.427 42.2133 174.763 41.8827 173.291 41.264C171.84 40.624 170.603 39.76 169.579 38.672C168.576 37.584 167.808 36.336 167.275 34.928C166.742 33.52 166.475 32.016 166.475 30.416C166.475 28.624 166.742 26.9813 167.275 25.488C167.83 23.9947 168.608 22.704 169.611 21.616C170.635 20.528 171.851 19.6853 173.259 19.088C174.667 18.4907 176.224 18.192 177.931 18.192C179.51 18.192 180.907 18.4053 182.123 18.832C183.339 19.2587 184.331 19.7173 185.099 20.208L183.275 24.592C182.742 24.1867 182.027 23.7707 181.131 23.344C180.256 22.896 179.243 22.672 178.091 22.672C177.195 22.672 176.331 22.864 175.499 23.248C174.688 23.6107 173.963 24.1333 173.323 24.816C172.704 25.4987 172.214 26.2987 171.851 27.216C171.488 28.112 171.307 29.0933 171.307 30.16C171.307 31.2907 171.467 32.3253 171.787 33.264C172.128 34.2027 172.608 35.0133 173.227 35.696C173.846 36.3573 174.582 36.8693 175.435 37.232C176.31 37.5947 177.291 37.776 178.379 37.776C179.638 37.776 180.715 37.5733 181.611 37.168C182.507 36.7627 183.19 36.336 183.659 35.888L185.579 40.048ZM187.572 42L198.196 17.52H198.452L209.076 42H203.7L196.916 24.784L200.276 22.48L192.148 42H187.572ZM194.836 33.488H201.908L203.54 37.392H193.396L194.836 33.488ZM212.509 18.448H217.149V37.52H228.221V42H212.509V18.448Z" fill="black"/>
<path d="M140.704 88.048C140.448 88.2613 139.968 88.5493 139.264 88.912C138.581 89.2747 137.739 89.5947 136.736 89.872C135.733 90.1493 134.624 90.2773 133.408 90.256C131.552 90.2133 129.888 89.8827 128.416 89.264C126.965 88.624 125.728 87.76 124.704 86.672C123.701 85.584 122.933 84.336 122.4 82.928C121.867 81.52 121.6 80.016 121.6 78.416C121.6 76.624 121.867 74.9813 122.4 73.488C122.955 71.9947 123.733 70.704 124.736 69.616C125.76 68.528 126.976 67.6853 128.384 67.088C129.792 66.4907 131.349 66.192 133.056 66.192C134.635 66.192 136.032 66.4053 137.248 66.832C138.464 67.2587 139.456 67.7173 140.224 68.208L138.4 72.592C137.867 72.1867 137.152 71.7707 136.256 71.344C135.381 70.896 134.368 70.672 133.216 70.672C132.32 70.672 131.456 70.864 130.624 71.248C129.813 71.6107 129.088 72.1333 128.448 72.816C127.829 73.4987 127.339 74.2987 126.976 75.216C126.613 76.112 126.432 77.0933 126.432 78.16C126.432 79.2907 126.592 80.3253 126.912 81.264C127.253 82.2027 127.733 83.0133 128.352 83.696C128.971 84.3573 129.707 84.8693 130.56 85.232C131.435 85.5947 132.416 85.776 133.504 85.776C134.763 85.776 135.84 85.5733 136.736 85.168C137.632 84.7627 138.315 84.336 138.784 83.888L140.704 88.048ZM145.353 66.448H149.993V90H145.353V66.448ZM163.207 66.448C164.679 66.448 165.991 66.64 167.143 67.024C168.295 67.3867 169.255 67.92 170.023 68.624C170.813 69.3067 171.41 70.1387 171.815 71.12C172.221 72.08 172.423 73.168 172.423 74.384C172.423 75.344 172.274 76.304 171.975 77.264C171.698 78.224 171.229 79.0987 170.567 79.888C169.927 80.6773 169.074 81.3173 168.007 81.808C166.941 82.2773 165.618 82.512 164.039 82.512H160.711V90H156.071V66.448H163.207ZM164.007 78.032C164.711 78.032 165.298 77.9147 165.767 77.68C166.237 77.4453 166.599 77.1467 166.855 76.784C167.133 76.4213 167.325 76.048 167.431 75.664C167.559 75.2587 167.623 74.8853 167.623 74.544C167.623 74.288 167.581 73.968 167.495 73.584C167.431 73.1787 167.282 72.7733 167.047 72.368C166.813 71.9627 166.45 71.6213 165.959 71.344C165.49 71.0667 164.85 70.928 164.039 70.928H160.711V78.032H164.007ZM168.359 80.912L174.183 90H168.775L162.823 81.04L168.359 80.912ZM194.86 88.048C194.604 88.2613 194.124 88.5493 193.42 88.912C192.738 89.2747 191.895 89.5947 190.892 89.872C189.89 90.1493 188.78 90.2773 187.564 90.256C185.708 90.2133 184.044 89.8827 182.572 89.264C181.122 88.624 179.884 87.76 178.86 86.672C177.858 85.584 177.09 84.336 176.556 82.928C176.023 81.52 175.756 80.016 175.756 78.416C175.756 76.624 176.023 74.9813 176.556 73.488C177.111 71.9947 177.89 70.704 178.892 69.616C179.916 68.528 181.132 67.6853 182.54 67.088C183.948 66.4907 185.506 66.192 187.212 66.192C188.791 66.192 190.188 66.4053 191.404 66.832C192.62 67.2587 193.612 67.7173 194.38 68.208L192.556 72.592C192.023 72.1867 191.308 71.7707 190.412 71.344C189.538 70.896 188.524 70.672 187.372 70.672C186.476 70.672 185.612 70.864 184.78 71.248C183.97 71.6107 183.244 72.1333 182.604 72.816C181.986 73.4987 181.495 74.2987 181.132 75.216C180.77 76.112 180.588 77.0933 180.588 78.16C180.588 79.2907 180.748 80.3253 181.068 81.264C181.41 82.2027 181.89 83.0133 182.508 83.696C183.127 84.3573 183.863 84.8693 184.716 85.232C185.591 85.5947 186.572 85.776 187.66 85.776C188.919 85.776 189.996 85.5733 190.892 85.168C191.788 84.7627 192.471 84.336 192.94 83.888L194.86 88.048ZM203.669 81.296C203.669 82.0427 203.893 82.7573 204.341 83.44C204.789 84.1227 205.375 84.6773 206.101 85.104C206.847 85.5307 207.658 85.744 208.533 85.744C209.493 85.744 210.346 85.5307 211.093 85.104C211.839 84.6773 212.426 84.1227 212.853 83.44C213.301 82.7573 213.525 82.0427 213.525 81.296V66.448H218.101V81.392C218.101 83.12 217.674 84.656 216.821 86C215.967 87.3227 214.815 88.368 213.365 89.136C211.914 89.8827 210.303 90.256 208.533 90.256C206.783 90.256 205.183 89.8827 203.733 89.136C202.303 88.368 201.162 87.3227 200.309 86C199.455 84.656 199.029 83.12 199.029 81.392V66.448H203.669V81.296ZM223.696 66.448H228.336V90H223.696V66.448ZM232.815 66.448H248.687V70.928H242.959V90H238.319V70.928H232.815V66.448ZM265.741 72.144C264.845 71.6533 263.928 71.248 262.989 70.928C262.072 70.608 261.208 70.448 260.397 70.448C259.394 70.448 258.605 70.6507 258.029 71.056C257.453 71.4613 257.165 72.0693 257.165 72.88C257.165 73.4347 257.378 73.936 257.805 74.384C258.253 74.8107 258.818 75.1947 259.501 75.536C260.205 75.8773 260.93 76.1867 261.677 76.464C262.36 76.72 263.032 77.0293 263.693 77.392C264.376 77.7333 264.984 78.1707 265.517 78.704C266.05 79.216 266.477 79.8667 266.797 80.656C267.117 81.424 267.277 82.3733 267.277 83.504C267.277 84.6987 266.968 85.808 266.349 86.832C265.73 87.856 264.824 88.688 263.629 89.328C262.434 89.9467 260.962 90.256 259.213 90.256C258.317 90.256 257.4 90.1707 256.461 90C255.544 89.808 254.637 89.5307 253.741 89.168C252.845 88.784 251.981 88.304 251.149 87.728L253.197 84.112C253.752 84.5173 254.349 84.88 254.989 85.2C255.65 85.4987 256.312 85.7333 256.973 85.904C257.634 86.0747 258.242 86.16 258.797 86.16C259.352 86.16 259.906 86.0853 260.461 85.936C261.037 85.7653 261.506 85.488 261.869 85.104C262.253 84.72 262.445 84.1867 262.445 83.504C262.445 83.0347 262.285 82.608 261.965 82.224C261.666 81.84 261.25 81.488 260.717 81.168C260.205 80.848 259.64 80.5707 259.021 80.336C258.296 80.0587 257.549 79.7387 256.781 79.376C256.013 79.0133 255.288 78.576 254.605 78.064C253.944 77.5307 253.4 76.88 252.973 76.112C252.568 75.3227 252.365 74.3627 252.365 73.232C252.365 71.8667 252.664 70.6827 253.261 69.68C253.88 68.6773 254.744 67.888 255.853 67.312C256.962 66.7147 258.242 66.384 259.693 66.32C261.592 66.32 263.128 66.544 264.301 66.992C265.496 67.44 266.562 67.9733 267.501 68.592L265.741 72.144Z" fill="black"/>
<path d="M115.188 122H114.048L118.944 112.964H119.016L121.692 122H120.36L118.392 114.824L119.292 114.284L115.188 122ZM116.676 118.712H119.904L120.168 119.72H116.22L116.676 118.712ZM124.214 112.712H125.342L124.202 122H123.086L124.214 112.712ZM128.737 121.16C128.937 121.16 129.129 121.128 129.313 121.064C129.497 120.992 129.673 120.904 129.841 120.8L130.249 121.652C130.009 121.796 129.745 121.908 129.457 121.988C129.177 122.068 128.901 122.108 128.629 122.108C128.109 122.108 127.653 122.012 127.261 121.82C126.869 121.62 126.561 121.332 126.337 120.956C126.121 120.58 126.013 120.128 126.013 119.6C126.013 119.272 126.073 118.948 126.193 118.628C126.313 118.308 126.493 118.016 126.733 117.752C126.973 117.48 127.269 117.264 127.621 117.104C127.981 116.936 128.397 116.852 128.869 116.852C129.165 116.852 129.445 116.892 129.709 116.972C129.981 117.044 130.229 117.168 130.453 117.344C130.677 117.52 130.865 117.756 131.017 118.052C131.177 118.348 131.289 118.712 131.353 119.144L127.105 120.344L126.925 119.66L130.549 118.616L130.153 118.796C130.073 118.484 129.913 118.228 129.673 118.028C129.441 117.828 129.161 117.728 128.833 117.728C128.481 117.728 128.177 117.812 127.921 117.98C127.665 118.14 127.469 118.352 127.333 118.616C127.197 118.88 127.129 119.164 127.129 119.468C127.129 119.852 127.205 120.168 127.357 120.416C127.509 120.664 127.709 120.852 127.957 120.98C128.205 121.1 128.465 121.16 128.737 121.16ZM132.402 122L133.53 112.712H134.658L133.518 122H132.402ZM135.126 118.7L136.998 122H135.69L134.298 119.324L135.126 118.7ZM133.362 120.416L133.35 119.348L136.662 116.924L137.31 117.512L133.362 120.416ZM139.927 122.096C139.767 122.096 139.567 122.072 139.327 122.024C139.095 121.984 138.859 121.904 138.619 121.784C138.387 121.656 138.179 121.472 137.995 121.232L138.547 120.62C138.707 120.812 138.867 120.96 139.027 121.064C139.195 121.16 139.355 121.224 139.507 121.256C139.659 121.28 139.799 121.292 139.927 121.292C140.215 121.292 140.423 121.22 140.551 121.076C140.679 120.924 140.743 120.78 140.743 120.644C140.743 120.476 140.691 120.344 140.587 120.248C140.483 120.144 140.347 120.06 140.179 119.996C140.019 119.924 139.851 119.856 139.675 119.792C139.315 119.648 139.039 119.468 138.847 119.252C138.663 119.028 138.571 118.76 138.571 118.448C138.571 118.288 138.603 118.12 138.667 117.944C138.731 117.76 138.831 117.588 138.967 117.428C139.103 117.268 139.283 117.136 139.507 117.032C139.731 116.928 140.011 116.876 140.347 116.876C140.499 116.876 140.675 116.892 140.875 116.924C141.083 116.948 141.295 117.008 141.511 117.104C141.735 117.192 141.939 117.332 142.123 117.524L141.607 118.184C141.447 117.992 141.267 117.86 141.067 117.788C140.867 117.708 140.671 117.668 140.479 117.668C140.303 117.668 140.159 117.7 140.047 117.764C139.935 117.82 139.851 117.896 139.795 117.992C139.747 118.088 139.723 118.184 139.723 118.28C139.723 118.432 139.775 118.556 139.879 118.652C139.983 118.748 140.115 118.828 140.275 118.892C140.435 118.956 140.595 119.024 140.755 119.096C140.979 119.184 141.179 119.292 141.355 119.42C141.531 119.54 141.667 119.692 141.763 119.876C141.859 120.052 141.899 120.276 141.883 120.548C141.867 120.716 141.819 120.892 141.739 121.076C141.659 121.26 141.543 121.432 141.391 121.592C141.239 121.744 141.043 121.868 140.803 121.964C140.563 122.052 140.271 122.096 139.927 122.096ZM150.511 113.324C150.943 113.324 151.335 113.384 151.687 113.504C152.047 113.616 152.351 113.788 152.599 114.02C152.855 114.244 153.039 114.524 153.151 114.86C153.263 115.188 153.295 115.572 153.247 116.012C153.199 116.356 153.103 116.692 152.959 117.02C152.823 117.348 152.623 117.648 152.359 117.92C152.095 118.184 151.767 118.4 151.375 118.568C150.983 118.728 150.515 118.808 149.971 118.808H148.687L148.291 122H147.139L148.207 113.324H150.511ZM150.091 117.692C150.547 117.692 150.911 117.604 151.183 117.428C151.463 117.252 151.667 117.036 151.795 116.78C151.931 116.524 152.015 116.284 152.047 116.06C152.071 115.884 152.059 115.704 152.011 115.52C151.971 115.328 151.895 115.152 151.783 114.992C151.679 114.832 151.523 114.7 151.315 114.596C151.115 114.492 150.863 114.44 150.559 114.44H149.215L148.831 117.692H150.091ZM151.423 118.352L153.259 122H151.903L150.043 118.388L151.423 118.352ZM156.369 122.192C155.913 122.192 155.553 122.06 155.289 121.796C155.025 121.524 154.917 121.168 154.965 120.728L155.409 117.032H156.525L156.117 120.344C156.101 120.592 156.153 120.8 156.273 120.968C156.401 121.136 156.613 121.224 156.909 121.232C157.189 121.232 157.449 121.152 157.689 120.992C157.937 120.824 158.145 120.6 158.313 120.32C158.481 120.032 158.585 119.708 158.625 119.348L158.913 117.032H160.029L159.417 122H158.409L158.469 120.812L158.517 120.98C158.389 121.204 158.213 121.408 157.989 121.592C157.773 121.776 157.525 121.92 157.245 122.024C156.973 122.136 156.681 122.192 156.369 122.192ZM156.561 115.076H159.357L159.285 115.712H156.477L156.561 115.076ZM162.68 114.848H163.796L163.532 117.056H164.9L164.792 117.932H163.424L162.932 122H161.816L162.308 117.932H161.396L161.492 117.056H162.416L162.68 114.848ZM166.272 117.032H167.388L166.776 122H165.66L166.272 117.032ZM166.356 115.364C166.356 115.18 166.424 115.024 166.56 114.896C166.696 114.768 166.864 114.704 167.064 114.704C167.216 114.704 167.36 114.752 167.496 114.848C167.64 114.944 167.708 115.092 167.7 115.292C167.692 115.476 167.62 115.632 167.484 115.76C167.348 115.888 167.18 115.952 166.98 115.952C166.828 115.952 166.684 115.904 166.548 115.808C166.412 115.704 166.348 115.556 166.356 115.364ZM170.327 117.032L170.315 118.16L170.231 118.004C170.447 117.66 170.739 117.38 171.107 117.164C171.483 116.948 171.915 116.84 172.403 116.84C172.883 116.84 173.255 116.98 173.519 117.26C173.791 117.532 173.907 117.888 173.867 118.328L173.411 122H172.295L172.691 118.712C172.723 118.44 172.667 118.22 172.523 118.052C172.387 117.884 172.163 117.8 171.851 117.8C171.555 117.8 171.283 117.884 171.035 118.052C170.787 118.212 170.583 118.432 170.423 118.712C170.263 118.992 170.163 119.312 170.123 119.672L169.835 122H168.719L169.319 117.032H170.327ZM170.555 124.508L169.991 124.112C170.191 123.952 170.335 123.724 170.423 123.428C170.519 123.132 170.551 122.832 170.519 122.528L171.503 122.54C171.535 122.756 171.519 122.988 171.455 123.236C171.391 123.492 171.283 123.732 171.131 123.956C170.979 124.188 170.787 124.372 170.555 124.508ZM176.888 122.096C176.728 122.096 176.528 122.072 176.288 122.024C176.056 121.984 175.82 121.904 175.58 121.784C175.348 121.656 175.14 121.472 174.956 121.232L175.508 120.62C175.668 120.812 175.828 120.96 175.988 121.064C176.156 121.16 176.316 121.224 176.468 121.256C176.62 121.28 176.76 121.292 176.888 121.292C177.176 121.292 177.384 121.22 177.512 121.076C177.64 120.924 177.704 120.78 177.704 120.644C177.704 120.476 177.652 120.344 177.548 120.248C177.444 120.144 177.308 120.06 177.14 119.996C176.98 119.924 176.812 119.856 176.636 119.792C176.276 119.648 176 119.468 175.808 119.252C175.624 119.028 175.532 118.76 175.532 118.448C175.532 118.288 175.564 118.12 175.628 117.944C175.692 117.76 175.792 117.588 175.928 117.428C176.064 117.268 176.244 117.136 176.468 117.032C176.692 116.928 176.972 116.876 177.308 116.876C177.46 116.876 177.636 116.892 177.836 116.924C178.044 116.948 178.256 117.008 178.472 117.104C178.696 117.192 178.9 117.332 179.084 117.524L178.568 118.184C178.408 117.992 178.228 117.86 178.028 117.788C177.828 117.708 177.632 117.668 177.44 117.668C177.264 117.668 177.12 117.7 177.008 117.764C176.896 117.82 176.812 117.896 176.756 117.992C176.708 118.088 176.684 118.184 176.684 118.28C176.684 118.432 176.736 118.556 176.84 118.652C176.944 118.748 177.076 118.828 177.236 118.892C177.396 118.956 177.556 119.024 177.716 119.096C177.94 119.184 178.14 119.292 178.316 119.42C178.492 119.54 178.628 119.692 178.724 119.876C178.82 120.052 178.86 120.276 178.844 120.548C178.828 120.716 178.78 120.892 178.7 121.076C178.62 121.26 178.504 121.432 178.352 121.592C178.2 121.744 178.004 121.868 177.764 121.964C177.524 122.052 177.232 122.096 176.888 122.096ZM177.056 113.672L177.968 114.944L177.668 115.016L178.916 113.672H179.936L177.74 115.868H177.728L176.036 113.672H177.056Z" fill="black"/>
<path d="M43.5 60.5V86.5" stroke="black"/>
<path d="M53.5 61V85.5" stroke="black"/>
<path d="M30.5 67V75.5" stroke="black"/>
<path d="M36 63V83" stroke="black"/>
<path d="M62.5 68.5V78" stroke="black"/>
<path d="M70.5 66V82.5" stroke="black"/>
<path d="M78.5 62.5V88.5" stroke="black"/>
<path d="M88.5 62.5V88.5" stroke="black"/>
<path d="M98 70V82" stroke="black"/>
<path d="M26.5 64.5C28 73 34.7 89.4 49.5 87C68 84 61.3551 62 83 62C98.5 62 101.5 75 101.5 86" stroke="black"/>
<path d="M24 75.511C26.5 70.511 34.4 60.411 46 60.011C57.6 59.611 64.6667 70.1777 66.5 75.511C68.1667 79.3444 73.8667 89.5 83.5 89.5C94.5 89.5 100.667 78.6777 102.5 75.511" stroke="black"/>
<path d="M236.293 28.2929C235.902 28.6834 235.902 29.3166 236.293 29.7071L242.657 36.0711C243.047 36.4616 243.681 36.4616 244.071 36.0711C244.462 35.6805 244.462 35.0474 244.071 34.6569L238.414 29L244.071 23.3431C244.462 22.9526 244.462 22.3195 244.071 21.9289C243.681 21.5384 243.047 21.5384 242.657 21.9289L236.293 28.2929ZM254.293 56.7071C254.683 57.0976 255.317 57.0976 255.707 56.7071L262.071 50.3431C262.462 49.9526 262.462 49.3195 262.071 48.9289C261.681 48.5384 261.047 48.5384 260.657 48.9289L255 54.5858L249.343 48.9289C248.953 48.5384 248.319 48.5384 247.929 48.9289C247.538 49.3195 247.538 49.9526 247.929 50.3431L254.293 56.7071ZM237 30H252V28H237V30ZM254 32V56H256V32H254ZM252 30C253.105 30 254 30.8954 254 32H256C256 29.7909 254.209 28 252 28V30Z" fill="black"/>
</svg>
