<svg width="245" height="72" viewBox="0 0 245 72" fill="none" xmlns="http://www.w3.org/2000/svg">
<g clip-path="url(#clip0_1_2)">
<path d="M9.952 0.447998C12.4053 0.447998 14.3573 0.949332 15.808 1.952C17.2587 2.93333 17.984 4.40533 17.984 6.368C17.984 7.81867 17.6213 9.03467 16.896 10.016C16.192 10.976 15.2213 11.7013 13.984 12.192C12.768 12.6613 11.3707 12.896 9.792 12.896L9.056 10.4C10.9973 10.4 12.7147 10.6667 14.208 11.2C15.7227 11.7333 16.9173 12.5013 17.792 13.504C18.6667 14.4853 19.104 15.6693 19.104 17.056C19.104 18.336 18.8693 19.424 18.4 20.32C17.952 21.1947 17.3333 21.9093 16.544 22.464C15.776 22.9973 14.9013 23.392 13.92 23.648C12.9387 23.8827 11.9253 24 10.88 24H3.04V0.447998H9.952ZM10.496 10.08C11.4133 10.08 12.0853 9.80267 12.512 9.248C12.96 8.69333 13.184 8.064 13.184 7.36C13.184 6.54933 12.9067 5.94133 12.352 5.536C11.8187 5.13067 11.0933 4.928 10.176 4.928H7.68V10.08H10.496ZM10.656 19.68C11.3387 19.68 11.9573 19.5947 12.512 19.424C13.0667 19.232 13.504 18.944 13.824 18.56C14.144 18.1547 14.304 17.6533 14.304 17.056C14.304 16.3733 14.112 15.8613 13.728 15.52C13.344 15.1573 12.8427 14.912 12.224 14.784C11.6267 14.6347 10.9973 14.56 10.336 14.56H7.68V19.68H10.656ZM23.7588 0.447998H28.3988V24H23.7588V0.447998ZM33.0375 12.256C33.0375 10.6347 33.3468 9.09867 33.9655 7.648C34.5842 6.19733 35.4375 4.91733 36.5255 3.808C37.6348 2.67733 38.9148 1.792 40.3655 1.152C41.8162 0.511999 43.3735 0.191999 45.0375 0.191999C46.6802 0.191999 48.2268 0.511999 49.6775 1.152C51.1282 1.792 52.4082 2.67733 53.5175 3.808C54.6482 4.91733 55.5228 6.19733 56.1415 7.648C56.7815 9.09867 57.1015 10.6347 57.1015 12.256C57.1015 13.92 56.7815 15.4773 56.1415 16.928C55.5228 18.3787 54.6482 19.6587 53.5175 20.768C52.4082 21.856 51.1282 22.7093 49.6775 23.328C48.2268 23.9467 46.6802 24.256 45.0375 24.256C43.3735 24.256 41.8162 23.9467 40.3655 23.328C38.9148 22.7093 37.6348 21.856 36.5255 20.768C35.4375 19.6587 34.5842 18.3787 33.9655 16.928C33.3468 15.4773 33.0375 13.92 33.0375 12.256ZM37.8375 12.256C37.8375 13.3013 38.0188 14.2827 38.3815 15.2C38.7655 16.096 39.2882 16.896 39.9495 17.6C40.6322 18.2827 41.4108 18.816 42.2855 19.2C43.1815 19.584 44.1522 19.776 45.1975 19.776C46.2002 19.776 47.1282 19.584 47.9815 19.2C48.8562 18.816 49.6135 18.2827 50.2535 17.6C50.8935 16.896 51.3948 16.096 51.7575 15.2C52.1202 14.2827 52.3015 13.3013 52.3015 12.256C52.3015 11.1893 52.1095 10.1973 51.7255 9.28C51.3628 8.36267 50.8508 7.56267 50.1895 6.88C49.5495 6.176 48.7922 5.632 47.9175 5.248C47.0428 4.864 46.0935 4.672 45.0695 4.672C44.0455 4.672 43.0962 4.864 42.2215 5.248C41.3468 5.632 40.5788 6.176 39.9175 6.88C39.2562 7.56267 38.7442 8.36267 38.3815 9.28C38.0188 10.1973 37.8375 11.1893 37.8375 12.256ZM61.7275 0.447998H66.3675V19.52H77.4395V24H61.7275V0.447998ZM80.1313 12.256C80.1313 10.6347 80.4406 9.09867 81.0593 7.648C81.6779 6.19733 82.5313 4.91733 83.6193 3.808C84.7286 2.67733 86.0086 1.792 87.4593 1.152C88.9099 0.511999 90.4673 0.191999 92.1313 0.191999C93.7739 0.191999 95.3206 0.511999 96.7713 1.152C98.2219 1.792 99.5019 2.67733 100.611 3.808C101.742 4.91733 102.617 6.19733 103.235 7.648C103.875 9.09867 104.195 10.6347 104.195 12.256C104.195 13.92 103.875 15.4773 103.235 16.928C102.617 18.3787 101.742 19.6587 100.611 20.768C99.5019 21.856 98.2219 22.7093 96.7713 23.328C95.3206 23.9467 93.7739 24.256 92.1313 24.256C90.4673 24.256 88.9099 23.9467 87.4593 23.328C86.0086 22.7093 84.7286 21.856 83.6193 20.768C82.5313 19.6587 81.6779 18.3787 81.0593 16.928C80.4406 15.4773 80.1313 13.92 80.1313 12.256ZM84.9313 12.256C84.9313 13.3013 85.1126 14.2827 85.4753 15.2C85.8593 16.096 86.3819 16.896 87.0433 17.6C87.7259 18.2827 88.5046 18.816 89.3793 19.2C90.2753 19.584 91.2459 19.776 92.2913 19.776C93.2939 19.776 94.2219 19.584 95.0753 19.2C95.9499 18.816 96.7073 18.2827 97.3472 17.6C97.9873 16.896 98.4886 16.096 98.8513 15.2C99.2139 14.2827 99.3953 13.3013 99.3953 12.256C99.3953 11.1893 99.2033 10.1973 98.8193 9.28C98.4566 8.36267 97.9446 7.56267 97.2833 6.88C96.6433 6.176 95.8859 5.632 95.0113 5.248C94.1366 4.864 93.1873 4.672 92.1633 4.672C91.1393 4.672 90.1899 4.864 89.3153 5.248C88.4406 5.632 87.6726 6.176 87.0113 6.88C86.3499 7.56267 85.8379 8.36267 85.4753 9.28C85.1126 10.1973 84.9313 11.1893 84.9313 12.256ZM127.925 21.632C127.648 21.9307 127.211 22.24 126.613 22.56C126.016 22.8587 125.323 23.136 124.533 23.392C123.765 23.648 122.976 23.8507 122.165 24C121.355 24.1707 120.587 24.256 119.861 24.256C117.941 24.256 116.213 23.9787 114.677 23.424C113.141 22.848 111.829 22.0587 110.741 21.056C109.653 20.032 108.821 18.8267 108.245 17.44C107.669 16.0533 107.381 14.5387 107.381 12.896C107.381 10.7413 107.701 8.87467 108.341 7.296C109.003 5.696 109.888 4.37333 110.997 3.328C112.128 2.26133 113.419 1.472 114.869 0.959999C116.341 0.447999 117.877 0.191999 119.477 0.191999C120.992 0.191999 122.379 0.362666 123.637 0.703999C124.896 1.024 125.963 1.42933 126.837 1.92L125.333 6.24C124.949 6.02667 124.437 5.81333 123.797 5.6C123.157 5.38667 122.507 5.216 121.845 5.088C121.184 4.93867 120.597 4.864 120.085 4.864C118.805 4.864 117.675 5.024 116.693 5.344C115.712 5.664 114.88 6.144 114.197 6.784C113.536 7.424 113.035 8.224 112.693 9.184C112.352 10.1227 112.181 11.2213 112.181 12.48C112.181 13.5893 112.373 14.592 112.757 15.488C113.141 16.3627 113.675 17.1093 114.357 17.728C115.061 18.3467 115.883 18.816 116.821 19.136C117.781 19.456 118.837 19.616 119.989 19.616C120.651 19.616 121.259 19.5733 121.813 19.488C122.368 19.3813 122.837 19.2213 123.221 19.008V16.16H119.157V11.68H127.925V21.632ZM133.196 0.447998H137.836V24H133.196V0.447998ZM161.579 22.048C161.323 22.2613 160.843 22.5493 160.139 22.912C159.456 23.2747 158.614 23.5947 157.611 23.872C156.608 24.1493 155.499 24.2773 154.283 24.256C152.427 24.2133 150.763 23.8827 149.291 23.264C147.84 22.624 146.603 21.76 145.579 20.672C144.576 19.584 143.808 18.336 143.275 16.928C142.742 15.52 142.475 14.016 142.475 12.416C142.475 10.624 142.742 8.98133 143.275 7.488C143.83 5.99467 144.608 4.704 145.611 3.616C146.635 2.528 147.851 1.68533 149.259 1.088C150.667 0.490666 152.224 0.191999 153.931 0.191999C155.51 0.191999 156.907 0.405333 158.123 0.831999C159.339 1.25867 160.331 1.71733 161.099 2.208L159.275 6.592C158.742 6.18667 158.027 5.77067 157.131 5.344C156.256 4.896 155.243 4.672 154.091 4.672C153.195 4.672 152.331 4.864 151.499 5.248C150.688 5.61067 149.963 6.13333 149.323 6.816C148.704 7.49867 148.214 8.29867 147.851 9.216C147.488 10.112 147.307 11.0933 147.307 12.16C147.307 13.2907 147.467 14.3253 147.787 15.264C148.128 16.2027 148.608 17.0133 149.227 17.696C149.846 18.3573 150.582 18.8693 151.435 19.232C152.31 19.5947 153.291 19.776 154.379 19.776C155.638 19.776 156.715 19.5733 157.611 19.168C158.507 18.7627 159.19 18.336 159.659 17.888L161.579 22.048ZM163.572 24L174.196 -0.480001H174.452L185.076 24H179.7L172.916 6.784L176.276 4.48L168.148 24H163.572ZM170.836 15.488H177.908L179.54 19.392H169.396L170.836 15.488ZM188.509 0.447998H193.149V19.52H204.221V24H188.509V0.447998Z" fill="black"/>
<path d="M116.704 70.048C116.448 70.2613 115.968 70.5493 115.264 70.912C114.581 71.2747 113.739 71.5947 112.736 71.872C111.733 72.1493 110.624 72.2773 109.408 72.256C107.552 72.2133 105.888 71.8827 104.416 71.264C102.965 70.624 101.728 69.76 100.704 68.672C99.7013 67.584 98.9333 66.336 98.4 64.928C97.8667 63.52 97.6 62.016 97.6 60.416C97.6 58.624 97.8667 56.9813 98.4 55.488C98.9547 53.9947 99.7333 52.704 100.736 51.616C101.76 50.528 102.976 49.6853 104.384 49.088C105.792 48.4907 107.349 48.192 109.056 48.192C110.635 48.192 112.032 48.4053 113.248 48.832C114.464 49.2587 115.456 49.7173 116.224 50.208L114.4 54.592C113.867 54.1867 113.152 53.7707 112.256 53.344C111.381 52.896 110.368 52.672 109.216 52.672C108.32 52.672 107.456 52.864 106.624 53.248C105.813 53.6107 105.088 54.1333 104.448 54.816C103.829 55.4987 103.339 56.2987 102.976 57.216C102.613 58.112 102.432 59.0933 102.432 60.16C102.432 61.2907 102.592 62.3253 102.912 63.264C103.253 64.2027 103.733 65.0133 104.352 65.696C104.971 66.3573 105.707 66.8693 106.56 67.232C107.435 67.5947 108.416 67.776 109.504 67.776C110.763 67.776 111.84 67.5733 112.736 67.168C113.632 66.7627 114.315 66.336 114.784 65.888L116.704 70.048ZM121.353 48.448H125.993V72H121.353V48.448ZM139.207 48.448C140.679 48.448 141.991 48.64 143.143 49.024C144.295 49.3867 145.255 49.92 146.023 50.624C146.813 51.3067 147.41 52.1387 147.815 53.12C148.221 54.08 148.423 55.168 148.423 56.384C148.423 57.344 148.274 58.304 147.975 59.264C147.698 60.224 147.229 61.0987 146.567 61.888C145.927 62.6773 145.074 63.3173 144.007 63.808C142.941 64.2773 141.618 64.512 140.039 64.512H136.711V72H132.071V48.448H139.207ZM140.007 60.032C140.711 60.032 141.298 59.9147 141.767 59.68C142.237 59.4453 142.599 59.1467 142.855 58.784C143.133 58.4213 143.325 58.048 143.431 57.664C143.559 57.2587 143.623 56.8853 143.623 56.544C143.623 56.288 143.581 55.968 143.495 55.584C143.431 55.1787 143.282 54.7733 143.047 54.368C142.813 53.9627 142.45 53.6213 141.959 53.344C141.49 53.0667 140.85 52.928 140.039 52.928H136.711V60.032H140.007ZM144.359 62.912L150.183 72H144.775L138.823 63.04L144.359 62.912ZM170.86 70.048C170.604 70.2613 170.124 70.5493 169.42 70.912C168.738 71.2747 167.895 71.5947 166.892 71.872C165.89 72.1493 164.78 72.2773 163.564 72.256C161.708 72.2133 160.044 71.8827 158.572 71.264C157.122 70.624 155.884 69.76 154.86 68.672C153.858 67.584 153.09 66.336 152.556 64.928C152.023 63.52 151.756 62.016 151.756 60.416C151.756 58.624 152.023 56.9813 152.556 55.488C153.111 53.9947 153.89 52.704 154.892 51.616C155.916 50.528 157.132 49.6853 158.54 49.088C159.948 48.4907 161.506 48.192 163.212 48.192C164.791 48.192 166.188 48.4053 167.404 48.832C168.62 49.2587 169.612 49.7173 170.38 50.208L168.556 54.592C168.023 54.1867 167.308 53.7707 166.412 53.344C165.538 52.896 164.524 52.672 163.372 52.672C162.476 52.672 161.612 52.864 160.78 53.248C159.97 53.6107 159.244 54.1333 158.604 54.816C157.986 55.4987 157.495 56.2987 157.132 57.216C156.77 58.112 156.588 59.0933 156.588 60.16C156.588 61.2907 156.748 62.3253 157.068 63.264C157.41 64.2027 157.89 65.0133 158.508 65.696C159.127 66.3573 159.863 66.8693 160.716 67.232C161.591 67.5947 162.572 67.776 163.66 67.776C164.919 67.776 165.996 67.5733 166.892 67.168C167.788 66.7627 168.471 66.336 168.94 65.888L170.86 70.048ZM179.669 63.296C179.669 64.0427 179.893 64.7573 180.341 65.44C180.789 66.1227 181.375 66.6773 182.101 67.104C182.847 67.5307 183.658 67.744 184.533 67.744C185.493 67.744 186.346 67.5307 187.093 67.104C187.839 66.6773 188.426 66.1227 188.853 65.44C189.301 64.7573 189.525 64.0427 189.525 63.296V48.448H194.101V63.392C194.101 65.12 193.674 66.656 192.821 68C191.967 69.3227 190.815 70.368 189.365 71.136C187.914 71.8827 186.303 72.256 184.533 72.256C182.783 72.256 181.183 71.8827 179.733 71.136C178.303 70.368 177.162 69.3227 176.309 68C175.455 66.656 175.029 65.12 175.029 63.392V48.448H179.669V63.296ZM199.696 48.448H204.336V72H199.696V48.448ZM208.815 48.448H224.687V52.928H218.959V72H214.319V52.928H208.815V48.448ZM241.741 54.144C240.845 53.6533 239.928 53.248 238.989 52.928C238.072 52.608 237.208 52.448 236.397 52.448C235.394 52.448 234.605 52.6507 234.029 53.056C233.453 53.4613 233.165 54.0693 233.165 54.88C233.165 55.4347 233.378 55.936 233.805 56.384C234.253 56.8107 234.818 57.1947 235.501 57.536C236.205 57.8773 236.93 58.1867 237.677 58.464C238.36 58.72 239.032 59.0293 239.693 59.392C240.376 59.7333 240.984 60.1707 241.517 60.704C242.05 61.216 242.477 61.8667 242.797 62.656C243.117 63.424 243.277 64.3733 243.277 65.504C243.277 66.6987 242.968 67.808 242.349 68.832C241.73 69.856 240.824 70.688 239.629 71.328C238.434 71.9467 236.962 72.256 235.213 72.256C234.317 72.256 233.4 72.1707 232.461 72C231.544 71.808 230.637 71.5307 229.741 71.168C228.845 70.784 227.981 70.304 227.149 69.728L229.197 66.112C229.752 66.5173 230.349 66.88 230.989 67.2C231.65 67.4987 232.312 67.7333 232.973 67.904C233.634 68.0747 234.242 68.16 234.797 68.16C235.352 68.16 235.906 68.0853 236.461 67.936C237.037 67.7653 237.506 67.488 237.869 67.104C238.253 66.72 238.445 66.1867 238.445 65.504C238.445 65.0347 238.285 64.608 237.965 64.224C237.666 63.84 237.25 63.488 236.717 63.168C236.205 62.848 235.64 62.5707 235.021 62.336C234.296 62.0587 233.549 61.7387 232.781 61.376C232.013 61.0133 231.288 60.576 230.605 60.064C229.944 59.5307 229.4 58.88 228.973 58.112C228.568 57.3227 228.365 56.3627 228.365 55.232C228.365 53.8667 228.664 52.6827 229.261 51.68C229.88 50.6773 230.744 49.888 231.853 49.312C232.962 48.7147 234.242 48.384 235.693 48.32C237.592 48.32 239.128 48.544 240.301 48.992C241.496 49.44 242.562 49.9733 243.501 50.592L241.741 54.144Z" fill="black"/>
<path d="M19.5 42.5V68.5" stroke="black"/>
<path d="M29.5 43V67.5" stroke="black"/>
<path d="M6.5 49V57.5" stroke="black"/>
<path d="M12 45V65" stroke="black"/>
<path d="M38.5 50.5V60" stroke="black"/>
<path d="M46.5 48V64.5" stroke="black"/>
<path d="M54.5 44.5V70.5" stroke="black"/>
<path d="M64.5 44.5V70.5" stroke="black"/>
<path d="M74 52V64" stroke="black"/>
<path d="M2.5 46.5C4 55 10.7 71.4 25.5 69C44 66 37.3551 44 59 44C74.5 44 77.5 57 77.5 68" stroke="black"/>
<path d="M0 57.511C2.5 52.511 10.4 42.411 22 42.011C33.6 41.611 40.6667 52.1777 42.5 57.511C44.1667 61.3444 49.8667 71.5 59.5 71.5C70.5 71.5 76.6667 60.6777 78.5 57.511" stroke="black"/>
<path d="M212.293 10.2929C211.902 10.6834 211.902 11.3166 212.293 11.7071L218.657 18.0711C219.047 18.4616 219.681 18.4616 220.071 18.0711C220.462 17.6805 220.462 17.0474 220.071 16.6569L214.414 11L220.071 5.34315C220.462 4.95262 220.462 4.31946 220.071 3.92893C219.681 3.53841 219.047 3.53841 218.657 3.92893L212.293 10.2929ZM230.293 38.7071C230.683 39.0976 231.317 39.0976 231.707 38.7071L238.071 32.3431C238.462 31.9526 238.462 31.3195 238.071 30.9289C237.681 30.5384 237.047 30.5384 236.657 30.9289L231 36.5858L225.343 30.9289C224.953 30.5384 224.319 30.5384 223.929 30.9289C223.538 31.3195 223.538 31.9526 223.929 32.3431L230.293 38.7071ZM213 12H228V10H213V12ZM230 14V38H232V14H230ZM228 12C229.105 12 230 12.8954 230 14H232C232 11.7909 230.209 10 228 10V12Z" fill="black"/>
</g>
<defs>
<clipPath id="clip0_1_2">
<rect width="245" height="72" fill="white"/>
</clipPath>
</defs>
</svg>
